<svg width="478" height="478" viewBox="0 0 478 478" fill="none" xmlns="http://www.w3.org/2000/svg">
<path fill-rule="evenodd" clip-rule="evenodd" d="M253.422 385.932C277.641 369.25 297.745 383.896 316.156 400.458C292.385 406.917 267.219 409.844 253.422 385.932Z" fill="#0047AB"/>
<path fill-rule="evenodd" clip-rule="evenodd" d="M259.24 371.573C260.318 342.188 284.068 334.797 308.344 329.906C299.339 352.833 286.661 374.781 259.24 371.573Z" fill="#0047AB"/>
<path fill-rule="evenodd" clip-rule="evenodd" d="M296.609 372.688C319.333 354.026 340.604 366.917 360.354 381.859C337.213 390.307 312.38 395.349 296.609 372.688Z" fill="#0047AB"/>
<path fill-rule="evenodd" clip-rule="evenodd" d="M317.682 358.756C303.521 332.98 320.109 314.448 338.438 297.792C342.474 322.089 342.859 347.433 317.682 358.756Z" fill="#0047AB"/>
<path fill-rule="evenodd" clip-rule="evenodd" d="M336.074 358.183C352.792 333.99 376.787 340.537 399.881 349.48C379.954 363.959 357.459 375.636 336.074 358.183Z" fill="#0047AB"/>
<path fill-rule="evenodd" clip-rule="evenodd" d="M359.681 336.604C338.051 316.682 347.874 293.828 359.937 272.203C371.504 293.948 379.942 317.844 359.681 336.604Z" fill="#0047AB"/>
<path fill-rule="evenodd" clip-rule="evenodd" d="M371.176 334.167C382.989 307.24 407.791 309.104 432.166 313.49C415.354 331.495 395.494 347.24 371.176 334.167Z" fill="#0047AB"/>
<path fill-rule="evenodd" clip-rule="evenodd" d="M390.885 308.136C365.932 292.573 371.344 268.297 379.193 244.802C394.588 264.026 407.312 285.948 390.885 308.136Z" fill="#0047AB"/>
<path fill-rule="evenodd" clip-rule="evenodd" d="M399.593 304.49C406.098 275.813 430.812 272.953 455.572 272.651C442.468 293.511 425.947 312.724 399.593 304.49Z" fill="#0047AB"/>
<path fill-rule="evenodd" clip-rule="evenodd" d="M407.004 262.349C380.437 249.745 383.03 225.011 388.135 200.776C405.635 218.11 420.786 238.427 407.004 262.349Z" fill="#0047AB"/>
<mask id="mask0_559_711" style="mask-type:luminance" maskUnits="userSpaceOnUse" x="410" y="232" width="54" height="40">
<path d="M410.666 232H463.885V272H410.666V232Z" fill="white"/>
</mask>
<g mask="url(#mask0_559_711)">
<path fill-rule="evenodd" clip-rule="evenodd" d="M411.432 270.552C414.489 241.302 438.682 235.531 463.239 232.292C452.702 254.557 438.577 275.594 411.432 270.552Z" fill="#0047AB"/>
</g>
<path fill-rule="evenodd" clip-rule="evenodd" d="M418.173 214.412C389.459 208.063 386.464 183.37 386.027 158.609C406.954 171.594 426.261 188.016 418.173 214.412Z" fill="#0047AB"/>
<path fill-rule="evenodd" clip-rule="evenodd" d="M423.792 235.979C415.485 207.771 435.662 193.219 457.131 180.875C455.865 205.474 450.813 230.313 423.792 235.979Z" fill="#0047AB"/>
<path fill-rule="evenodd" clip-rule="evenodd" d="M406.881 159C377.511 160.469 368.089 137.448 361.121 113.688C384.74 120.677 407.699 131.406 406.881 159Z" fill="#0047AB"/>
<path fill-rule="evenodd" clip-rule="evenodd" d="M425.786 190.651C408.14 167.135 421.953 146.448 437.75 127.375C445.166 150.865 449.12 175.896 425.786 190.651Z" fill="#0047AB"/>
<mask id="mask1_559_711" style="mask-type:luminance" maskUnits="userSpaceOnUse" x="353" y="66" width="42" height="52">
<path d="M353.334 66.7915H394.667V117.333H353.334V66.7915Z" fill="white"/>
</mask>
<g mask="url(#mask1_559_711)">
<path fill-rule="evenodd" clip-rule="evenodd" d="M394.031 117.161C364.677 115.468 357.786 91.5674 353.406 67.1924C376.141 76.682 397.813 89.8122 394.031 117.161Z" fill="#0047AB"/>
</g>
<path fill-rule="evenodd" clip-rule="evenodd" d="M412.771 142.537C390.713 123.089 400.036 100.031 411.63 78.146C423.667 99.6356 432.62 123.344 412.771 142.537Z" fill="#0047AB"/>
<path fill-rule="evenodd" clip-rule="evenodd" d="M223.9 386.354C199.682 369.677 179.577 384.323 161.166 400.88C184.937 407.339 210.109 410.271 223.9 386.354Z" fill="#0047AB"/>
<path fill-rule="evenodd" clip-rule="evenodd" d="M218.083 372C217.005 342.615 193.255 335.224 168.979 330.333C177.984 353.261 190.661 375.203 218.083 372Z" fill="#0047AB"/>
<path fill-rule="evenodd" clip-rule="evenodd" d="M180.714 373.115C157.99 354.448 136.719 367.344 116.969 382.287C140.109 390.729 164.943 395.776 180.714 373.115Z" fill="#0047AB"/>
<path fill-rule="evenodd" clip-rule="evenodd" d="M159.64 359.177C173.801 333.407 157.213 314.87 138.885 298.214C134.848 322.516 134.463 347.855 159.64 359.177Z" fill="#0047AB"/>
<path fill-rule="evenodd" clip-rule="evenodd" d="M141.251 358.604C124.532 334.412 100.537 340.964 77.4434 349.906C97.3705 364.386 119.865 376.063 141.251 358.604Z" fill="#0047AB"/>
<path fill-rule="evenodd" clip-rule="evenodd" d="M117.641 337.026C139.271 317.11 129.448 294.255 117.386 272.63C105.818 294.375 97.3803 318.271 117.641 337.026Z" fill="#0047AB"/>
<path fill-rule="evenodd" clip-rule="evenodd" d="M106.146 334.594C94.3334 307.667 69.5313 309.532 45.1562 313.917C61.9688 331.922 81.8281 347.662 106.146 334.594Z" fill="#0047AB"/>
<path fill-rule="evenodd" clip-rule="evenodd" d="M86.437 308.558C111.39 293 105.979 268.719 98.1297 245.229C82.7339 264.453 70.0099 286.37 86.437 308.558Z" fill="#0047AB"/>
<path fill-rule="evenodd" clip-rule="evenodd" d="M77.7292 304.917C71.224 276.24 46.5104 273.38 21.75 273.078C34.8542 293.938 51.3802 313.151 77.7292 304.917Z" fill="#0047AB"/>
<path fill-rule="evenodd" clip-rule="evenodd" d="M70.3179 262.776C96.8856 250.172 94.2918 225.432 89.1877 201.203C71.6877 218.536 56.5366 238.854 70.3179 262.776Z" fill="#0047AB"/>
<mask id="mask2_559_711" style="mask-type:luminance" maskUnits="userSpaceOnUse" x="13" y="232" width="54" height="40">
<path d="M13.5156 232H66.6667V272H13.5156V232Z" fill="white"/>
</mask>
<g mask="url(#mask2_559_711)">
<path fill-rule="evenodd" clip-rule="evenodd" d="M65.89 270.974C62.8327 241.729 38.64 235.953 14.0879 232.713C24.6191 254.979 38.7441 276.021 65.89 270.974Z" fill="#0047AB"/>
</g>
<path fill-rule="evenodd" clip-rule="evenodd" d="M59.1517 214.834C87.8652 208.49 90.86 183.797 91.2975 159.037C70.3704 172.021 51.0631 188.438 59.1517 214.834Z" fill="#0047AB"/>
<path fill-rule="evenodd" clip-rule="evenodd" d="M53.5319 236.401C61.8392 208.193 41.6621 193.646 20.1934 181.302C21.459 205.901 26.5111 230.735 53.5319 236.401Z" fill="#0047AB"/>
<path fill-rule="evenodd" clip-rule="evenodd" d="M70.4431 159.427C99.8129 160.896 109.235 137.875 116.204 114.109C92.5837 121.099 69.6254 131.828 70.4431 159.427Z" fill="#0047AB"/>
<path fill-rule="evenodd" clip-rule="evenodd" d="M51.5361 191.078C69.182 167.557 55.3694 146.87 39.5726 127.802C32.1559 151.287 28.2028 176.318 51.5361 191.078Z" fill="#0047AB"/>
<mask id="mask3_559_711" style="mask-type:luminance" maskUnits="userSpaceOnUse" x="82" y="66" width="42" height="53">
<path d="M82.666 66.7915H123.999V118.667H82.666V66.7915Z" fill="white"/>
</mask>
<g mask="url(#mask3_559_711)">
<path fill-rule="evenodd" clip-rule="evenodd" d="M83.2912 117.588C112.651 115.89 119.536 91.9894 123.916 67.6196C101.182 77.104 79.51 90.2394 83.2912 117.588Z" fill="#0047AB"/>
</g>
<path fill-rule="evenodd" clip-rule="evenodd" d="M64.5516 142.959C86.6089 123.516 77.286 100.453 65.6922 78.5732C53.6557 100.063 44.7026 123.771 64.5516 142.959Z" fill="#0047AB"/>
<path d="M247.099 380.428C247.099 380.99 247.042 381.542 246.932 382.089C246.823 382.641 246.661 383.173 246.448 383.688C246.234 384.204 245.974 384.699 245.661 385.162C245.354 385.626 245 386.058 244.604 386.454C244.208 386.85 243.776 387.204 243.312 387.511C242.849 387.824 242.354 388.084 241.839 388.298C241.323 388.511 240.792 388.673 240.24 388.782C239.693 388.891 239.141 388.949 238.578 388.949C238.021 388.949 237.469 388.891 236.917 388.782C236.37 388.673 235.839 388.511 235.318 388.298C234.802 388.084 234.313 387.824 233.849 387.511C233.38 387.204 232.953 386.85 232.557 386.454C232.161 386.058 231.807 385.626 231.495 385.162C231.188 384.699 230.922 384.204 230.708 383.688C230.495 383.173 230.333 382.641 230.224 382.089C230.115 381.542 230.062 380.99 230.062 380.428C230.062 379.87 230.115 379.318 230.224 378.766C230.333 378.219 230.495 377.688 230.708 377.167C230.922 376.652 231.188 376.162 231.495 375.699C231.807 375.23 232.161 374.803 232.557 374.407C232.953 374.011 233.38 373.657 233.849 373.344C234.313 373.037 234.802 372.771 235.318 372.558C235.839 372.344 236.37 372.183 236.917 372.074C237.469 371.964 238.021 371.912 238.578 371.912C239.141 371.912 239.693 371.964 240.24 372.074C240.792 372.183 241.323 372.344 241.839 372.558C242.354 372.771 242.849 373.037 243.312 373.344C243.776 373.657 244.208 374.011 244.604 374.407C245 374.803 245.354 375.23 245.661 375.699C245.974 376.162 246.234 376.652 246.448 377.167C246.661 377.688 246.823 378.219 246.932 378.766C247.042 379.318 247.099 379.87 247.099 380.428Z" fill="#0047AB"/>
</svg>
