<svg width="150" height="50" viewBox="0 0 150 50" fill="none" xmlns="http://www.w3.org/2000/svg">
<path d="M25.6172 17.7477C24.8776 16.8883 24.013 16.2842 23.013 15.9352C22.0234 15.5915 21.0547 15.4144 20.0964 15.4144C17.9974 15.4144 16.3099 16.1436 15.0339 17.6019C13.7526 19.0498 13.1172 20.9977 13.1172 23.4561C13.1172 25.8206 13.7734 27.7165 15.0964 29.1436C16.4297 30.5758 18.1641 31.2894 20.3047 31.2894C21.263 31.2894 22.2318 31.1227 23.2214 30.7894C24.2057 30.4561 25.0807 29.9092 25.8464 29.1436C26.5547 28.4508 27.2474 28.0915 27.9297 28.0602C28.6224 28.0186 29.1901 28.2061 29.638 28.6227C30.0807 29.0394 30.3255 29.5758 30.3672 30.2269C30.4193 30.8831 30.1432 31.5394 29.5339 32.2061C28.2943 33.5811 26.8672 34.5706 25.2422 35.1644C23.6276 35.7477 21.9609 36.0394 20.2422 36.0394C17.7266 36.0394 15.5182 35.5133 13.6172 34.4561C11.7109 33.404 10.2318 31.9352 9.17969 30.0602C8.13802 28.1748 7.61719 25.9873 7.61719 23.4977C7.61719 20.9144 8.1276 18.6644 9.15885 16.7477C10.2005 14.8311 11.6589 13.3467 13.5339 12.2894C15.4193 11.2373 17.6068 10.7061 20.0964 10.7061C21.8568 10.7061 23.4974 10.9769 25.013 11.5186C26.5234 12.0602 27.9193 13.0811 29.2005 14.5811C29.7682 15.2633 30.013 15.9248 29.9297 16.5602C29.8568 17.2008 29.5807 17.7269 29.0964 18.1436C28.6224 18.5498 28.0599 18.7425 27.4089 18.7269C26.7526 18.7165 26.1589 18.3883 25.6172 17.7477Z" fill="#0047AB"/>
<path d="M52.9102 11.1852C53.7279 11.1852 54.3893 11.4248 54.8893 11.8936C55.3893 12.3519 55.6393 12.9508 55.6393 13.6852V33.0811C55.6393 33.805 55.3893 34.404 54.8893 34.8727C54.3893 35.3311 53.7279 35.5602 52.9102 35.5602C52.1029 35.5602 51.4779 35.3831 51.0352 35.0186C50.5872 34.6436 50.3164 34.154 50.2227 33.5394C49.1393 34.4144 47.9206 35.055 46.5768 35.4561C45.2435 35.8415 43.9622 36.0394 42.7435 36.0394C40.4518 36.0394 38.4622 35.5133 36.7852 34.4561C35.1185 33.404 33.832 31.9248 32.931 30.0186C32.0404 28.1019 31.5977 25.8675 31.5977 23.3102C31.5977 20.8102 32.0872 18.6227 33.0768 16.7477C34.0612 14.8623 35.4414 13.3831 37.2227 12.3102C38.9987 11.2425 41.0456 10.7061 43.3685 10.7061C44.3945 10.7061 45.5247 10.904 46.7643 11.2894C48.0143 11.6644 49.1654 12.2686 50.2227 13.1019C50.3477 12.5342 50.6289 12.0758 51.0768 11.7269C51.5195 11.3675 52.1289 11.1852 52.9102 11.1852ZM43.3268 31.2061C44.7279 31.2061 46.082 30.8936 47.3893 30.2686C48.707 29.6436 49.6393 28.7269 50.181 27.5186V19.2269C49.5664 18.0498 48.6497 17.1383 47.431 16.4977C46.2227 15.8623 44.9987 15.5394 43.7643 15.5394C41.7487 15.5394 40.1237 16.279 38.8893 17.7477C37.6654 19.2217 37.056 21.0915 37.056 23.3519C37.056 25.7165 37.6237 27.6175 38.7643 29.0602C39.9154 30.4925 41.4362 31.2061 43.3268 31.2061Z" fill="#0047AB"/>
<path d="M80.6243 11.1855C81.4577 11.1855 82.166 11.5501 82.7493 12.2689C83.3431 12.9928 83.4629 13.8314 83.1035 14.7897L69.1243 42.2064C68.8014 42.8158 68.3952 43.2949 67.8952 43.6439C67.4056 44.0033 66.8952 44.1855 66.3535 44.1855C65.8118 44.1855 65.3014 43.998 64.8327 43.623C64.3743 43.2585 64.0514 42.7897 63.8743 42.2064C63.7077 41.6335 63.7806 41.0293 64.1035 40.3939L67.7493 33.2064L58.3118 14.9772C58.0202 14.3418 57.9785 13.7376 58.1868 13.1647C58.3952 12.5814 58.7337 12.1126 59.2077 11.748C59.6921 11.373 60.2181 11.1855 60.791 11.1855C61.3014 11.1855 61.7962 11.347 62.2702 11.6647C62.7546 11.9876 63.1087 12.4043 63.3327 12.9147L70.7077 27.3314L78.0827 12.873C78.3014 12.3626 78.6348 11.9512 79.0827 11.6439C79.541 11.3418 80.0514 11.1855 80.6243 11.1855Z" fill="#0047AB"/>
<path d="M117.636 29.8727C117.412 28.9717 117.62 28.2477 118.261 27.7061C118.896 27.1644 119.599 26.8936 120.365 26.8936C120.933 26.8936 121.438 27.0602 121.886 27.3936C122.344 27.7269 122.683 28.2373 122.907 28.9144C123.084 29.4873 123.495 29.9561 124.136 30.3311C124.771 30.6956 125.516 30.9561 126.365 31.1227C127.209 31.279 128.063 31.3519 128.928 31.3519C130.646 31.3519 132.037 31.0394 133.094 30.4144C134.146 29.7894 134.678 28.9977 134.678 28.0394C134.678 27.3727 134.396 26.8831 133.844 26.5602C133.287 26.2425 132.553 26.0186 131.636 25.8936C130.73 25.7686 129.766 25.6748 128.74 25.6019C127.391 25.4769 126.073 25.3206 124.782 25.1227C123.49 24.93 122.313 24.6019 121.261 24.1436C120.219 23.6852 119.375 23.0081 118.74 22.1019C118.099 21.1852 117.782 19.9456 117.782 18.3727C117.782 16.8467 118.224 15.5081 119.115 14.3519C120 13.2008 121.261 12.305 122.886 11.6644C124.521 11.029 126.412 10.7061 128.553 10.7061C129.787 10.7061 131.12 10.8311 132.553 11.0811C133.995 11.3206 135.329 11.805 136.553 12.5394C137.787 13.279 138.698 14.4092 139.282 15.9352C139.5 16.5758 139.48 17.1436 139.219 17.6436C138.969 18.1331 138.594 18.5081 138.094 18.7686C137.605 19.0186 137.105 19.1436 136.594 19.1436C136.021 19.1436 135.553 19.0342 135.178 18.8102C134.813 18.5915 134.5 18.2061 134.24 17.6644C133.959 16.9873 133.474 16.4873 132.782 16.1644C132.099 15.8467 131.365 15.654 130.573 15.5811C129.792 15.4977 129.12 15.4561 128.553 15.4561C126.954 15.4561 125.667 15.7269 124.698 16.2686C123.724 16.8102 123.24 17.529 123.24 18.4144C123.24 19.18 123.49 19.7008 123.99 19.9769C124.5 20.2581 125.198 20.4144 126.073 20.4561C126.959 20.4977 127.948 20.5915 129.032 20.7269C130.365 20.8831 131.683 21.055 132.99 21.2477C134.308 21.4456 135.511 21.7686 136.594 22.2269C137.678 22.6852 138.537 23.3727 139.178 24.2894C139.813 25.1956 140.136 26.4456 140.136 28.0394C140.136 29.6123 139.662 30.9977 138.719 32.2061C137.771 33.4144 136.459 34.3623 134.782 35.0394C133.115 35.7061 131.162 36.0394 128.928 36.0394C127.938 36.0394 126.865 35.9613 125.698 35.8102C124.532 35.6696 123.396 35.3883 122.303 34.9561C121.204 34.529 120.24 33.9092 119.407 33.1019C118.573 32.2842 117.98 31.2061 117.636 29.8727Z" fill="#0047AB"/>
<mask id="mask0_559_510" style="mask-type:luminance" maskUnits="userSpaceOnUse" x="100" y="33" width="7" height="4">
<path d="M100 33.3335H106.667V36.6095H100V33.3335Z" fill="white"/>
</mask>
<g mask="url(#mask0_559_510)">
<path fill-rule="evenodd" clip-rule="evenodd" d="M101.073 34.7242C102.729 33.5887 104.099 34.5887 105.359 35.719C103.734 36.1617 102.016 36.3596 101.073 34.7242Z" fill="#0047AB"/>
</g>
<path fill-rule="evenodd" clip-rule="evenodd" d="M101.468 33.7446C101.541 31.7394 103.166 31.2342 104.822 30.9009C104.208 32.4634 103.343 33.9634 101.468 33.7446Z" fill="#0047AB"/>
<path fill-rule="evenodd" clip-rule="evenodd" d="M104.021 33.8229C105.579 32.5469 107.032 33.4271 108.381 34.4479C106.798 35.026 105.1 35.3698 104.021 33.8229Z" fill="#0047AB"/>
<path fill-rule="evenodd" clip-rule="evenodd" d="M105.464 32.8698C104.495 31.1094 105.631 29.8438 106.881 28.7031C107.157 30.3646 107.183 32.0938 105.464 32.8698Z" fill="#0047AB"/>
<path fill-rule="evenodd" clip-rule="evenodd" d="M106.719 32.828C107.859 31.177 109.5 31.6249 111.078 32.2343C109.719 33.2239 108.182 34.0208 106.719 32.828Z" fill="#0047AB"/>
<path fill-rule="evenodd" clip-rule="evenodd" d="M108.333 31.3543C106.853 29.995 107.525 28.4325 108.348 26.9585C109.14 28.4429 109.718 30.0731 108.333 31.3543Z" fill="#0047AB"/>
<path fill-rule="evenodd" clip-rule="evenodd" d="M109.12 31.1928C109.922 29.3491 111.62 29.4793 113.281 29.7762C112.135 31.0053 110.776 32.0835 109.12 31.1928Z" fill="#0047AB"/>
<path fill-rule="evenodd" clip-rule="evenodd" d="M110.463 29.4116C108.76 28.3491 109.13 26.6877 109.666 25.0835C110.718 26.4012 111.588 27.896 110.463 29.4116Z" fill="#0047AB"/>
<mask id="mask1_559_510" style="mask-type:luminance" maskUnits="userSpaceOnUse" x="110" y="26" width="6" height="4">
<path d="M110.666 26.6665H115.275V29.3332H110.666V26.6665Z" fill="white"/>
</mask>
<g mask="url(#mask1_559_510)">
<path fill-rule="evenodd" clip-rule="evenodd" d="M111.057 29.1611C111.505 27.2028 113.192 27.0101 114.88 26.9893C113.989 28.4111 112.859 29.7236 111.057 29.1611Z" fill="#0047AB"/>
</g>
<path fill-rule="evenodd" clip-rule="evenodd" d="M111.562 26.2865C109.75 25.4219 109.927 23.7344 110.276 22.0781C111.474 23.2604 112.505 24.651 111.562 26.2865Z" fill="#0047AB"/>
<mask id="mask2_559_510" style="mask-type:luminance" maskUnits="userSpaceOnUse" x="110" y="24" width="6" height="4">
<path d="M110.666 24H115.275V28H110.666V24Z" fill="white"/>
</mask>
<g mask="url(#mask2_559_510)">
<path fill-rule="evenodd" clip-rule="evenodd" d="M111.868 26.8436C112.076 24.8436 113.727 24.453 115.404 24.229C114.686 25.7498 113.722 27.1873 111.868 26.8436Z" fill="#0047AB"/>
</g>
<path fill-rule="evenodd" clip-rule="evenodd" d="M112.328 23.0103C110.365 22.5728 110.162 20.8905 110.131 19.1978C111.563 20.0832 112.881 21.203 112.328 23.0103Z" fill="#0047AB"/>
<mask id="mask3_559_510" style="mask-type:luminance" maskUnits="userSpaceOnUse" x="112" y="20" width="4" height="6">
<path d="M112 20H115.276V25.3333H112V20Z" fill="white"/>
</mask>
<g mask="url(#mask3_559_510)">
<path fill-rule="evenodd" clip-rule="evenodd" d="M112.714 24.4844C112.146 22.5573 113.521 21.5625 114.99 20.7188C114.902 22.401 114.558 24.0938 112.714 24.4844Z" fill="#0047AB"/>
</g>
<path fill-rule="evenodd" clip-rule="evenodd" d="M111.557 19.2241C109.552 19.3231 108.906 17.7502 108.432 16.1304C110.041 16.6043 111.614 17.3387 111.557 19.2241Z" fill="#0047AB"/>
<path fill-rule="evenodd" clip-rule="evenodd" d="M112.849 21.3854C111.64 19.7813 112.588 18.3646 113.666 17.0625C114.172 18.6667 114.443 20.3802 112.849 21.3854Z" fill="#0047AB"/>
<mask id="mask4_559_510" style="mask-type:luminance" maskUnits="userSpaceOnUse" x="106" y="12" width="6" height="6">
<path d="M106.666 12.9219H111.999V17.3333H106.666V12.9219Z" fill="white"/>
</mask>
<g mask="url(#mask4_559_510)">
<path fill-rule="evenodd" clip-rule="evenodd" d="M110.675 16.3646C108.67 16.25 108.201 14.6146 107.899 12.9531C109.456 13.599 110.936 14.4948 110.675 16.3646Z" fill="#0047AB"/>
</g>
<path fill-rule="evenodd" clip-rule="evenodd" d="M111.959 18.0988C110.454 16.7707 111.089 15.1925 111.881 13.6978C112.704 15.1665 113.313 16.7863 111.959 18.0988Z" fill="#0047AB"/>
<mask id="mask5_559_510" style="mask-type:luminance" maskUnits="userSpaceOnUse" x="94" y="33" width="6" height="4">
<path d="M94.666 33.3335H99.9993V36.6095H94.666V33.3335Z" fill="white"/>
</mask>
<g mask="url(#mask5_559_510)">
<path fill-rule="evenodd" clip-rule="evenodd" d="M99.056 34.7553C97.3997 33.6147 96.0247 34.6147 94.7695 35.7501C96.3945 36.1876 98.1133 36.3908 99.056 34.7553Z" fill="#0047AB"/>
</g>
<path fill-rule="evenodd" clip-rule="evenodd" d="M98.6569 33.7762C98.584 31.7658 96.9642 31.2606 95.3027 30.9272C95.9225 32.495 96.7871 33.995 98.6569 33.7762Z" fill="#0047AB"/>
<path fill-rule="evenodd" clip-rule="evenodd" d="M96.1042 33.8489C94.5521 32.578 93.099 33.4583 91.75 34.4791C93.3333 35.052 95.026 35.401 96.1042 33.8489Z" fill="#0047AB"/>
<path fill-rule="evenodd" clip-rule="evenodd" d="M94.6667 32.9011C95.6355 31.1406 94.5 29.8698 93.25 28.7344C92.974 30.3958 92.9479 32.125 94.6667 32.9011Z" fill="#0047AB"/>
<path fill-rule="evenodd" clip-rule="evenodd" d="M93.4121 32.8593C92.2663 31.2082 90.6309 31.6562 89.0527 32.2655C90.4121 33.2551 91.9486 34.052 93.4121 32.8593Z" fill="#0047AB"/>
<path fill-rule="evenodd" clip-rule="evenodd" d="M91.7964 31.3854C93.2756 30.026 92.6037 28.4635 91.7808 26.9844C90.9891 28.474 90.411 30.1042 91.7964 31.3854Z" fill="#0047AB"/>
<path fill-rule="evenodd" clip-rule="evenodd" d="M91.0104 31.2189C90.2031 29.3804 88.5104 29.5054 86.8438 29.8075C87.9948 31.0366 89.349 32.1148 91.0104 31.2189Z" fill="#0047AB"/>
<path fill-rule="evenodd" clip-rule="evenodd" d="M89.6659 29.4429C91.369 28.3804 90.9992 26.7189 90.4628 25.1147C89.4107 26.4272 88.5409 27.9273 89.6659 29.4429Z" fill="#0047AB"/>
<mask id="mask6_559_510" style="mask-type:luminance" maskUnits="userSpaceOnUse" x="84" y="26" width="6" height="4">
<path d="M84.6816 26.6665H89.3327V29.3332H84.6816V26.6665Z" fill="white"/>
</mask>
<g mask="url(#mask6_559_510)">
<path fill-rule="evenodd" clip-rule="evenodd" d="M89.0671 29.1927C88.6243 27.2344 86.9368 27.0365 85.2441 27.0156C86.14 28.4427 87.2702 29.7552 89.0671 29.1927Z" fill="#0047AB"/>
</g>
<path fill-rule="evenodd" clip-rule="evenodd" d="M88.5616 26.3123C90.3793 25.453 90.2022 23.7603 89.8532 22.104C88.6553 23.2915 87.6241 24.6769 88.5616 26.3123Z" fill="#0047AB"/>
<mask id="mask7_559_510" style="mask-type:luminance" maskUnits="userSpaceOnUse" x="84" y="24" width="6" height="4">
<path d="M84.6816 24H89.3327V28H84.6816V24Z" fill="white"/>
</mask>
<g mask="url(#mask7_559_510)">
<path fill-rule="evenodd" clip-rule="evenodd" d="M88.2591 26.8748C88.0508 24.8748 86.3997 24.479 84.7227 24.2603C85.4414 25.7811 86.405 27.2186 88.2591 26.8748Z" fill="#0047AB"/>
</g>
<path fill-rule="evenodd" clip-rule="evenodd" d="M87.8024 23.0366C89.7608 22.6043 89.9691 20.9168 89.9952 19.2241C88.5681 20.1147 87.2504 21.2345 87.8024 23.0366Z" fill="#0047AB"/>
<mask id="mask8_559_510" style="mask-type:luminance" maskUnits="userSpaceOnUse" x="84" y="20" width="4" height="6">
<path d="M84.6816 20H87.9993V25.3333H84.6816V20Z" fill="white"/>
</mask>
<g mask="url(#mask8_559_510)">
<path fill-rule="evenodd" clip-rule="evenodd" d="M87.4167 24.5103C87.9844 22.5832 86.6042 21.5884 85.1406 20.7446C85.224 22.4269 85.5729 24.1248 87.4167 24.5103Z" fill="#0047AB"/>
</g>
<path fill-rule="evenodd" clip-rule="evenodd" d="M88.5738 19.2552C90.579 19.3542 91.2248 17.7813 91.6988 16.1562C90.0842 16.6354 88.5165 17.3698 88.5738 19.2552Z" fill="#0047AB"/>
<path fill-rule="evenodd" clip-rule="evenodd" d="M87.2821 21.4167C88.4852 19.8073 87.5425 18.3958 86.4644 17.0938C85.9592 18.6979 85.6883 20.4063 87.2821 21.4167Z" fill="#0047AB"/>
<mask id="mask9_559_510" style="mask-type:luminance" maskUnits="userSpaceOnUse" x="89" y="12" width="5" height="6">
<path d="M89.334 12.9219H93.334V17.3333H89.334V12.9219Z" fill="white"/>
</mask>
<g mask="url(#mask9_559_510)">
<path fill-rule="evenodd" clip-rule="evenodd" d="M89.4488 16.3957C91.4592 16.2759 91.928 14.6457 92.2248 12.979C90.6727 13.63 89.1936 14.5259 89.4488 16.3957Z" fill="#0047AB"/>
</g>
<path fill-rule="evenodd" clip-rule="evenodd" d="M88.1722 18.1301C89.6774 16.7967 89.0419 15.2238 88.2503 13.729C87.4274 15.1978 86.8128 16.8176 88.1722 18.1301Z" fill="#0047AB"/>
<path d="M100.64 34.3491C100.64 34.5106 100.583 34.646 100.468 34.7606C100.354 34.8752 100.218 34.9325 100.057 34.9325C99.8952 34.9325 99.7598 34.8752 99.6452 34.7606C99.5306 34.646 99.4785 34.5106 99.4785 34.3491C99.4785 34.1877 99.5306 34.0522 99.6452 33.9377C99.7598 33.8231 99.8952 33.771 100.057 33.771C100.218 33.771 100.354 33.8231 100.468 33.9377C100.583 34.0522 100.64 34.1877 100.64 34.3491Z" fill="#0047AB"/>
</svg>
