<svg xmlns="http://www.w3.org/2000/svg" xmlns:xlink="http://www.w3.org/1999/xlink" width="478" zoomAndPan="magnify" viewBox="0 0 358.5 358.499998" height="478" preserveAspectRatio="xMidYMid meet" version="1.0"><defs><clipPath id="f69151fcc6"><path d="M 308 174 L 347.914062 174 L 347.914062 204 L 308 204 Z M 308 174 " clip-rule="nonzero"/></clipPath><clipPath id="17c96acf22"><path d="M 306 172 L 347.914062 172 L 347.914062 206 L 306 206 Z M 306 172 " clip-rule="nonzero"/></clipPath><clipPath id="94b98b6d3c"><path d="M 265 50.09375 L 296 50.09375 L 296 88 L 265 88 Z M 265 50.09375 " clip-rule="nonzero"/></clipPath><clipPath id="032cebe49c"><path d="M 263 50.09375 L 298 50.09375 L 298 90 L 263 90 Z M 263 50.09375 " clip-rule="nonzero"/></clipPath><clipPath id="82354a176a"><path d="M 10.136719 174 L 50 174 L 50 204 L 10.136719 204 Z M 10.136719 174 " clip-rule="nonzero"/></clipPath><clipPath id="2df03bae4e"><path d="M 10.136719 172 L 52 172 L 52 206 L 10.136719 206 Z M 10.136719 172 " clip-rule="nonzero"/></clipPath><clipPath id="b0a4f35d5b"><path d="M 62 50.09375 L 93 50.09375 L 93 89 L 62 89 Z M 62 50.09375 " clip-rule="nonzero"/></clipPath><clipPath id="c4e9cedf25"><path d="M 60 50.09375 L 95 50.09375 L 95 91 L 60 91 Z M 60 50.09375 " clip-rule="nonzero"/></clipPath></defs><path fill="#ffffff" d="M 0 0 L 358 0 L 358 358 L 0 358 Z M 0 0 " fill-opacity="1" fill-rule="nonzero"/><path fill="#ffffff" d="M 0 0 L 358 0 L 358 358 L 0 358 Z M 0 0 " fill-opacity="1" fill-rule="nonzero"/><path stroke-linecap="butt" transform="matrix(-0.361391, 0, 0, 0.361391, 315.500709, -34.521304)" fill-opacity="1" fill="#0047ab" fill-rule="evenodd" stroke-linejoin="miter" d="M 347.087725 896.454872 C 296.82617 861.833848 255.103675 892.228578 216.894084 926.600996 C 266.226071 940.004078 318.454852 946.0787 347.087725 896.454872 Z M 347.087725 896.454872 " stroke="#007d00" stroke-width="1" stroke-opacity="1" stroke-miterlimit="4"/><path stroke-linecap="butt" transform="matrix(-0.361391, 0, 0, 0.361391, 315.500709, -34.521304)" fill-opacity="1" fill="#0047ab" fill-rule="evenodd" stroke-linejoin="miter" d="M 335.014143 866.654634 C 332.776693 805.670614 283.487942 790.332732 233.107489 780.183141 C 251.79614 827.76408 278.105092 873.312939 335.014143 866.654634 Z M 335.014143 866.654634 " stroke="#007d00" stroke-width="1" stroke-opacity="1" stroke-miterlimit="4"/><path stroke-linecap="butt" transform="matrix(-0.361391, 0, 0, 0.361391, 315.500709, -34.521304)" fill-opacity="1" fill="#0047ab" fill-rule="evenodd" stroke-linejoin="miter" d="M 257.460023 868.967746 C 210.300633 830.239326 166.156936 856.991444 125.169448 888.002284 C 173.193553 905.534379 224.730563 915.997429 257.460023 868.967746 Z M 257.460023 868.967746 " stroke="#007d00" stroke-width="1" stroke-opacity="1" stroke-miterlimit="4"/><path stroke-linecap="butt" transform="matrix(-0.361391, 0, 0, 0.361391, 315.500709, -34.521304)" fill-opacity="1" fill="#0047ab" fill-rule="evenodd" stroke-linejoin="miter" d="M 213.727066 840.053841 C 243.116564 786.560414 208.690101 748.102217 170.653453 713.535238 C 162.276527 763.958927 161.476666 816.555213 213.727066 840.053841 Z M 213.727066 840.053841 " stroke="#007d00" stroke-width="1" stroke-opacity="1" stroke-miterlimit="4"/><path stroke-linecap="butt" transform="matrix(-0.361391, 0, 0, 0.361391, 315.500709, -34.521304)" fill-opacity="1" fill="#0047ab" fill-rule="evenodd" stroke-linejoin="miter" d="M 175.560711 838.864858 C 140.864024 788.657347 91.067253 802.244181 43.140428 820.803125 C 84.49542 850.851968 131.179217 875.085604 175.560711 838.864858 Z M 175.560711 838.864858 " stroke="#007d00" stroke-width="1" stroke-opacity="1" stroke-miterlimit="4"/><path stroke-linecap="butt" transform="matrix(-0.361391, 0, 0, 0.361391, 315.500709, -34.521304)" fill-opacity="1" fill="#0047ab" fill-rule="evenodd" stroke-linejoin="miter" d="M 126.563801 794.083433 C 171.453315 752.739251 151.06766 705.309637 126.034163 660.430933 C 102.027515 705.558243 84.517038 755.149644 126.563801 794.083433 Z M 126.563801 794.083433 " stroke="#007d00" stroke-width="1" stroke-opacity="1" stroke-miterlimit="4"/><path stroke-linecap="butt" transform="matrix(-0.361391, 0, 0, 0.361391, 315.500709, -34.521304)" fill-opacity="1" fill="#0047ab" fill-rule="evenodd" stroke-linejoin="miter" d="M 102.708478 789.024851 C 78.19381 733.142649 26.721654 737.012248 -23.86417 746.113373 C 11.027078 783.479867 52.241553 816.155282 102.708478 789.024851 Z M 102.708478 789.024851 " stroke="#007d00" stroke-width="1" stroke-opacity="1" stroke-miterlimit="4"/><path stroke-linecap="butt" transform="matrix(-0.361391, 0, 0, 0.361391, 315.500709, -34.521304)" fill-opacity="1" fill="#0047ab" fill-rule="evenodd" stroke-linejoin="miter" d="M 61.807462 735.001786 C 113.593077 702.704684 102.362592 652.32423 86.073524 603.565117 C 54.122308 643.460902 27.716076 688.955716 61.807462 735.001786 Z M 61.807462 735.001786 " stroke="#007d00" stroke-width="1" stroke-opacity="1" stroke-miterlimit="4"/><path stroke-linecap="butt" transform="matrix(-0.361391, 0, 0, 0.361391, 315.500709, -34.521304)" fill-opacity="1" fill="#0047ab" fill-rule="evenodd" stroke-linejoin="miter" d="M 43.73492 727.43553 C 30.234558 667.921526 -21.053846 661.987419 -72.439531 661.360501 C -45.244246 704.650292 -10.958299 744.524459 43.73492 727.43553 Z M 43.73492 727.43553 " stroke="#007d00" stroke-width="1" stroke-opacity="1" stroke-miterlimit="4"/><path stroke-linecap="butt" transform="matrix(-0.361391, 0, 0, 0.361391, 315.500709, -34.521304)" fill-opacity="1" fill="#0047ab" fill-rule="evenodd" stroke-linejoin="miter" d="M 28.353803 639.980424 C 83.490189 613.822798 78.107338 562.491158 67.51458 512.197176 C 31.196553 548.169317 -0.246643 590.334979 28.353803 639.980424 Z M 28.353803 639.980424 " stroke="#007d00" stroke-width="1" stroke-opacity="1" stroke-miterlimit="4"/><g clip-path="url(#f69151fcc6)"><path fill="#0047ab" d="M 308.574219 202.914062 C 310.867188 180.976562 329.011719 176.648438 347.429688 174.21875 C 339.527344 190.917969 328.933594 206.695312 308.574219 202.914062 Z M 308.574219 202.914062 " fill-opacity="1" fill-rule="evenodd"/></g><g clip-path="url(#17c96acf22)"><path stroke-linecap="butt" transform="matrix(-0.361391, 0, 0, 0.361391, 315.500709, -34.521304)" fill="none" stroke-linejoin="miter" d="M 19.166207 657.0045 C 12.821361 596.301512 -37.386149 584.32521 -88.350285 577.602051 C -66.483807 623.810255 -37.169971 667.46755 19.166207 657.0045 Z M 19.166207 657.0045 " stroke="#007d00" stroke-width="1" stroke-opacity="1" stroke-miterlimit="4"/></g><path stroke-linecap="butt" transform="matrix(-0.361391, 0, 0, 0.361391, 315.500709, -34.521304)" fill-opacity="1" fill="#0047ab" fill-rule="evenodd" stroke-linejoin="miter" d="M 5.179443 540.494972 C 64.76911 527.318878 70.984249 476.07371 71.8922 424.688025 C 28.461892 451.634704 -11.606836 485.715281 5.179443 540.494972 Z M 5.179443 540.494972 " stroke="#007d00" stroke-width="1" stroke-opacity="1" stroke-miterlimit="4"/><path stroke-linecap="butt" transform="matrix(-0.361391, 0, 0, 0.361391, 315.500709, -34.521304)" fill-opacity="1" fill="#0047ab" fill-rule="evenodd" stroke-linejoin="miter" d="M -6.4834 585.254779 C 10.756854 526.713578 -31.116966 496.513409 -75.671403 470.896229 C -73.044831 521.946837 -62.560163 573.494655 -6.4834 585.254779 Z M -6.4834 585.254779 " stroke="#007d00" stroke-width="1" stroke-opacity="1" stroke-miterlimit="4"/><path stroke-linecap="butt" transform="matrix(-0.361391, 0, 0, 0.361391, 315.500709, -34.521304)" fill-opacity="1" fill="#0047ab" fill-rule="evenodd" stroke-linejoin="miter" d="M 28.613218 425.498696 C 89.564811 428.546816 109.118177 380.771316 123.580534 331.460947 C 74.562007 345.96654 26.916215 368.23295 28.613218 425.498696 Z M 28.613218 425.498696 " stroke="#007d00" stroke-width="1" stroke-opacity="1" stroke-miterlimit="4"/><path stroke-linecap="butt" transform="matrix(-0.361391, 0, 0, 0.361391, 315.500709, -34.521304)" fill-opacity="1" fill="#0047ab" fill-rule="evenodd" stroke-linejoin="miter" d="M -10.623222 491.184603 C 25.997455 442.382255 -2.667845 399.449158 -35.45135 359.866833 C -50.843275 408.615137 -59.047258 460.562886 -10.623222 491.184603 Z M -10.623222 491.184603 " stroke="#007d00" stroke-width="1" stroke-opacity="1" stroke-miterlimit="4"/><g clip-path="url(#94b98b6d3c)"><path fill="#0047ab" d="M 295.523438 87.871094 C 273.507812 86.601562 268.339844 68.675781 265.054688 50.394531 C 282.105469 57.511719 298.359375 67.359375 295.523438 87.871094 Z M 295.523438 87.871094 " fill-opacity="1" fill-rule="evenodd"/></g><g clip-path="url(#032cebe49c)"><path stroke-linecap="butt" transform="matrix(-0.361391, 0, 0, 0.361391, 315.500709, -34.521304)" fill="none" stroke-linejoin="miter" d="M 55.278864 338.670508 C 116.198031 335.157604 130.498254 285.555394 139.58857 234.96957 C 92.407561 254.663453 47.431576 281.912782 55.278864 338.670508 Z M 55.278864 338.670508 " stroke="#007d00" stroke-width="1" stroke-opacity="1" stroke-miterlimit="4"/></g><path stroke-linecap="butt" transform="matrix(-0.361391, 0, 0, 0.361391, 315.500709, -34.521304)" fill-opacity="1" fill="#0047ab" fill-rule="evenodd" stroke-linejoin="miter" d="M 16.38831 391.331647 C 62.164157 350.971078 42.81616 303.119916 18.755467 257.700764 C -6.223985 302.298436 -24.804547 351.500716 16.38831 391.331647 Z M 16.38831 391.331647 " stroke="#007d00" stroke-width="1" stroke-opacity="1" stroke-miterlimit="4"/><path stroke-linecap="butt" transform="matrix(0.361391, 0, 0, 0.361391, 42.491639, -34.20256)" fill-opacity="1" fill="#0047ab" fill-rule="evenodd" stroke-linejoin="miter" d="M 347.08728 896.448401 C 296.825725 861.838186 255.10323 892.232916 216.893639 926.594525 C 266.225626 939.997606 318.465216 946.083038 347.08728 896.448401 Z M 347.08728 896.448401 " stroke="#007d00" stroke-width="1" stroke-opacity="1" stroke-miterlimit="4"/><path stroke-linecap="butt" transform="matrix(0.361391, 0, 0, 0.361391, 42.491639, -34.20256)" fill-opacity="1" fill="#0047ab" fill-rule="evenodd" stroke-linejoin="miter" d="M 335.013698 866.658972 C 332.776248 805.674951 283.487498 790.33707 233.107044 780.187479 C 251.795695 827.768418 278.104647 873.306468 335.013698 866.658972 Z M 335.013698 866.658972 " stroke="#007d00" stroke-width="1" stroke-opacity="1" stroke-miterlimit="4"/><path stroke-linecap="butt" transform="matrix(0.361391, 0, 0, 0.361391, 42.491639, -34.20256)" fill-opacity="1" fill="#0047ab" fill-rule="evenodd" stroke-linejoin="miter" d="M 257.459578 868.972084 C 210.300188 830.232855 166.156491 856.995782 125.169003 888.006621 C 173.193109 905.527908 224.730118 916.001767 257.459578 868.972084 Z M 257.459578 868.972084 " stroke="#007d00" stroke-width="1" stroke-opacity="1" stroke-miterlimit="4"/><path stroke-linecap="butt" transform="matrix(0.361391, 0, 0, 0.361391, 42.491639, -34.20256)" fill-opacity="1" fill="#0047ab" fill-rule="evenodd" stroke-linejoin="miter" d="M 213.726621 840.04737 C 243.116119 786.564751 208.689656 748.095746 170.653008 713.528767 C 162.276083 763.963265 161.476221 816.548742 213.726621 840.04737 Z M 213.726621 840.04737 " stroke="#007d00" stroke-width="1" stroke-opacity="1" stroke-miterlimit="4"/><path stroke-linecap="butt" transform="matrix(0.361391, 0, 0, 0.361391, 42.491639, -34.20256)" fill-opacity="1" fill="#0047ab" fill-rule="evenodd" stroke-linejoin="miter" d="M 175.560266 838.858387 C 140.863579 788.650876 91.066808 802.248518 43.139983 820.807463 C 84.494975 850.856306 131.178772 875.089942 175.560266 838.858387 Z M 175.560266 838.858387 " stroke="#007d00" stroke-width="1" stroke-opacity="1" stroke-miterlimit="4"/><path stroke-linecap="butt" transform="matrix(0.361391, 0, 0, 0.361391, 42.491639, -34.20256)" fill-opacity="1" fill="#0047ab" fill-rule="evenodd" stroke-linejoin="miter" d="M 126.563356 794.076962 C 171.45287 752.743589 151.067215 705.313975 126.033718 660.43527 C 102.02707 705.562581 84.516593 755.153982 126.563356 794.076962 Z M 126.563356 794.076962 " stroke="#007d00" stroke-width="1" stroke-opacity="1" stroke-miterlimit="4"/><path stroke-linecap="butt" transform="matrix(0.361391, 0, 0, 0.361391, 42.491639, -34.20256)" fill-opacity="1" fill="#0047ab" fill-rule="evenodd" stroke-linejoin="miter" d="M 102.708033 789.029189 C 78.193365 733.146987 26.721209 737.016586 -23.864615 746.117711 C 11.026633 783.484204 52.241108 816.148811 102.708033 789.029189 Z M 102.708033 789.029189 " stroke="#007d00" stroke-width="1" stroke-opacity="1" stroke-miterlimit="4"/><path stroke-linecap="butt" transform="matrix(0.361391, 0, 0, 0.361391, 42.491639, -34.20256)" fill-opacity="1" fill="#0047ab" fill-rule="evenodd" stroke-linejoin="miter" d="M 61.807017 734.995315 C 113.592632 702.709021 102.362147 652.317759 86.07308 603.569455 C 54.121863 643.46524 27.715631 688.949245 61.807017 734.995315 Z M 61.807017 734.995315 " stroke="#007d00" stroke-width="1" stroke-opacity="1" stroke-miterlimit="4"/><path stroke-linecap="butt" transform="matrix(0.361391, 0, 0, 0.361391, 42.491639, -34.20256)" fill-opacity="1" fill="#0047ab" fill-rule="evenodd" stroke-linejoin="miter" d="M 43.734475 727.439868 C 30.234113 667.925863 -21.054291 661.991757 -72.439976 661.364839 C -45.244691 704.65463 -10.947935 744.528797 43.734475 727.439868 Z M 43.734475 727.439868 " stroke="#007d00" stroke-width="1" stroke-opacity="1" stroke-miterlimit="4"/><path stroke-linecap="butt" transform="matrix(0.361391, 0, 0, 0.361391, 42.491639, -34.20256)" fill-opacity="1" fill="#0047ab" fill-rule="evenodd" stroke-linejoin="miter" d="M 28.353358 639.984762 C 83.489744 613.827136 78.106893 562.484687 67.514135 512.201514 C 31.196108 548.173655 -0.247088 590.339316 28.353358 639.984762 Z M 28.353358 639.984762 " stroke="#007d00" stroke-width="1" stroke-opacity="1" stroke-miterlimit="4"/><g clip-path="url(#82354a176a)"><path fill="#0047ab" d="M 49.417969 203.230469 C 47.125 181.296875 28.980469 176.964844 10.566406 174.535156 C 18.464844 191.234375 29.058594 207.015625 49.417969 203.230469 Z M 49.417969 203.230469 " fill-opacity="1" fill-rule="evenodd"/></g><g clip-path="url(#2df03bae4e)"><path stroke-linecap="butt" transform="matrix(0.361391, 0, 0, 0.361391, 42.491639, -34.20256)" fill="none" stroke-linejoin="miter" d="M 19.165762 656.998028 C 12.820916 596.305849 -37.386594 584.318739 -88.339921 577.59558 C -66.484252 623.803784 -37.170415 667.471888 19.165762 656.998028 Z M 19.165762 656.998028 " stroke="#007d00" stroke-width="1" stroke-opacity="1" stroke-miterlimit="4"/></g><path stroke-linecap="butt" transform="matrix(0.361391, 0, 0, 0.361391, 42.491639, -34.20256)" fill-opacity="1" fill="#0047ab" fill-rule="evenodd" stroke-linejoin="miter" d="M 5.178998 540.488501 C 64.768666 527.323216 70.983804 476.078048 71.891755 424.692363 C 28.461448 451.639042 -11.60728 485.70881 5.178998 540.488501 Z M 5.178998 540.488501 " stroke="#007d00" stroke-width="1" stroke-opacity="1" stroke-miterlimit="4"/><path stroke-linecap="butt" transform="matrix(0.361391, 0, 0, 0.361391, 42.491639, -34.20256)" fill-opacity="1" fill="#0047ab" fill-rule="evenodd" stroke-linejoin="miter" d="M -6.483844 585.248307 C 10.756409 526.707107 -31.117411 496.517747 -75.671848 470.900567 C -73.045276 521.951175 -62.560608 573.488184 -6.483844 585.248307 Z M -6.483844 585.248307 " stroke="#007d00" stroke-width="1" stroke-opacity="1" stroke-miterlimit="4"/><path stroke-linecap="butt" transform="matrix(0.361391, 0, 0, 0.361391, 42.491639, -34.20256)" fill-opacity="1" fill="#0047ab" fill-rule="evenodd" stroke-linejoin="miter" d="M 28.612773 425.503033 C 89.564366 428.551154 109.117732 380.775654 123.58009 331.454476 C 74.561562 345.960069 26.91577 368.226478 28.612773 425.503033 Z M 28.612773 425.503033 " stroke="#007d00" stroke-width="1" stroke-opacity="1" stroke-miterlimit="4"/><path stroke-linecap="butt" transform="matrix(0.361391, 0, 0, 0.361391, 42.491639, -34.20256)" fill-opacity="1" fill="#0047ab" fill-rule="evenodd" stroke-linejoin="miter" d="M -10.623667 491.188941 C 25.99701 442.375783 -2.66829 399.442687 -35.451795 359.87117 C -50.84372 408.608666 -59.047703 460.556415 -10.623667 491.188941 Z M -10.623667 491.188941 " stroke="#007d00" stroke-width="1" stroke-opacity="1" stroke-miterlimit="4"/><g clip-path="url(#b0a4f35d5b)"><path fill="#0047ab" d="M 62.46875 88.191406 C 84.488281 86.917969 89.652344 68.992188 92.9375 50.714844 C 75.886719 57.828125 59.632812 67.679688 62.46875 88.191406 Z M 62.46875 88.191406 " fill-opacity="1" fill-rule="evenodd"/></g><g clip-path="url(#c4e9cedf25)"><path stroke-linecap="butt" transform="matrix(0.361391, 0, 0, 0.361391, 42.491639, -34.20256)" fill="none" stroke-linejoin="miter" d="M 55.278419 338.674846 C 116.208395 335.151132 130.497809 285.548922 139.588125 234.973908 C 92.407116 254.656982 47.431131 281.91712 55.278419 338.674846 Z M 55.278419 338.674846 " stroke="#007d00" stroke-width="1" stroke-opacity="1" stroke-miterlimit="4"/></g><path stroke-linecap="butt" transform="matrix(0.361391, 0, 0, 0.361391, 42.491639, -34.20256)" fill-opacity="1" fill="#0047ab" fill-rule="evenodd" stroke-linejoin="miter" d="M 16.387865 391.325176 C 62.163712 350.975416 42.815715 303.113444 18.755022 257.705102 C -6.22443 302.302774 -24.804992 351.505053 16.387865 391.325176 Z M 16.387865 391.325176 " stroke="#007d00" stroke-width="1" stroke-opacity="1" stroke-miterlimit="4"/><path stroke-linecap="round" transform="matrix(0.486504, 0, 0, 0.372016, 7.418663, -51.683748)" fill-opacity="1" fill="#0047ab" fill-rule="nonzero" stroke-linejoin="miter" d="M 365.681389 905.886724 C 365.681389 907.020749 365.593067 908.133773 365.424454 909.236297 C 365.25584 910.349322 365.006934 911.420345 364.677736 912.459868 C 364.348538 913.499391 363.947077 914.496913 363.465324 915.431433 C 362.9916 916.365953 362.445613 917.237472 361.835392 918.03549 C 361.225172 918.833507 360.558746 919.547523 359.844146 920.167037 C 359.129545 920.79705 358.366769 921.322062 357.571876 921.752571 C 356.776983 922.183081 355.958003 922.508588 355.106906 922.729093 C 354.263837 922.949597 353.41274 923.0651 352.545584 923.0651 C 351.686458 923.0651 350.83536 922.949597 349.984263 922.729093 C 349.141195 922.508588 348.322214 922.183081 347.519292 921.752571 C 346.724399 921.322062 345.969653 920.79705 345.255052 920.167037 C 344.532422 919.547523 343.874026 918.833507 343.263805 918.03549 C 342.653585 917.237472 342.107598 916.365953 341.625844 915.431433 C 341.15212 914.496913 340.74263 913.499391 340.413432 912.459868 C 340.084234 911.420345 339.835328 910.349322 339.666715 909.236297 C 339.498101 908.133773 339.417809 907.020749 339.417809 905.886724 C 339.417809 904.7632 339.498101 903.650175 339.666715 902.537151 C 339.835328 901.434627 340.084234 900.363603 340.413432 899.31358 C 340.74263 898.274058 341.15212 897.287036 341.625844 896.352516 C 342.107598 895.407495 342.653585 894.546476 343.263805 893.748459 C 343.874026 892.950441 344.532422 892.236426 345.255052 891.606412 C 345.969653 890.986898 346.724399 890.451387 347.519292 890.020877 C 348.322214 889.590368 349.141195 889.264861 349.984263 889.044356 C 350.83536 888.823851 351.686458 888.718849 352.545584 888.718849 C 353.41274 888.718849 354.263837 888.823851 355.106906 889.044356 C 355.958003 889.264861 356.776983 889.590368 357.571876 890.020877 C 358.366769 890.451387 359.129545 890.986898 359.844146 891.606412 C 360.558746 892.236426 361.225172 892.950441 361.835392 893.748459 C 362.445613 894.546476 362.9916 895.407495 363.465324 896.352516 C 363.947077 897.287036 364.348538 898.274058 364.677736 899.31358 C 365.006934 900.363603 365.25584 901.434627 365.424454 902.537151 C 365.593067 903.650175 365.681389 904.7632 365.681389 905.886724 Z M 365.681389 905.886724 " stroke="#007d00" stroke-width="0.849" stroke-opacity="1" stroke-miterlimit="4"/></svg>