<svg xmlns="http://www.w3.org/2000/svg" xmlns:xlink="http://www.w3.org/1999/xlink" width="150" zoomAndPan="magnify" viewBox="0 0 112.5 37.5" height="50" preserveAspectRatio="xMidYMid meet" version="1.0"><defs><g/><clipPath id="ab209902a5"><path d="M 0.492188 0 L 111.511719 0 L 111.511719 37.007812 L 0.492188 37.007812 Z M 0.492188 0 " clip-rule="nonzero"/></clipPath><clipPath id="2ef1cd73b5"><path d="M 75 25 L 80 25 L 80 27.457031 L 75 27.457031 Z M 75 25 " clip-rule="nonzero"/></clipPath><clipPath id="6e8bde3641"><path d="M 83 20 L 86.457031 20 L 86.457031 22 L 83 22 Z M 83 20 " clip-rule="nonzero"/></clipPath><clipPath id="aa3f179090"><path d="M 83 20 L 86.457031 20 L 86.457031 23 L 83 23 Z M 83 20 " clip-rule="nonzero"/></clipPath><clipPath id="45756e87b9"><path d="M 83 18 L 86.457031 18 L 86.457031 21 L 83 21 Z M 83 18 " clip-rule="nonzero"/></clipPath><clipPath id="ea8f5602ea"><path d="M 84 15 L 86.457031 15 L 86.457031 19 L 84 19 Z M 84 15 " clip-rule="nonzero"/></clipPath><clipPath id="222871845b"><path d="M 80 9.691406 L 84 9.691406 L 84 13 L 80 13 Z M 80 9.691406 " clip-rule="nonzero"/></clipPath><clipPath id="ad12740f32"><path d="M 71 25 L 75 25 L 75 27.457031 L 71 27.457031 Z M 71 25 " clip-rule="nonzero"/></clipPath><clipPath id="e6008ce443"><path d="M 70 25 L 75 25 L 75 27.457031 L 70 27.457031 Z M 70 25 " clip-rule="nonzero"/></clipPath><clipPath id="6d3cd0d43f"><path d="M 63.511719 20 L 67 20 L 67 22 L 63.511719 22 Z M 63.511719 20 " clip-rule="nonzero"/></clipPath><clipPath id="9435f5f69f"><path d="M 63.511719 20 L 67 20 L 67 23 L 63.511719 23 Z M 63.511719 20 " clip-rule="nonzero"/></clipPath><clipPath id="31daade1f9"><path d="M 63.511719 18 L 67 18 L 67 21 L 63.511719 21 Z M 63.511719 18 " clip-rule="nonzero"/></clipPath><clipPath id="2004dc5c5c"><path d="M 63.511719 15 L 66 15 L 66 19 L 63.511719 19 Z M 63.511719 15 " clip-rule="nonzero"/></clipPath><clipPath id="6bd80a14b4"><path d="M 67 9.691406 L 70 9.691406 L 70 13 L 67 13 Z M 67 9.691406 " clip-rule="nonzero"/></clipPath><clipPath id="e3e26a60b4"><path d="M 66 9.691406 L 70 9.691406 L 70 13 L 66 13 Z M 66 9.691406 " clip-rule="nonzero"/></clipPath></defs><g clip-path="url(#ab209902a5)"><path fill="#ffffff" d="M 0.492188 0 L 111.511719 0 L 111.511719 37.007812 L 0.492188 37.007812 Z M 0.492188 0 " fill-opacity="1" fill-rule="nonzero"/><path fill="#ffffff" d="M 0.492188 0 L 111.511719 0 L 111.511719 37.007812 L 0.492188 37.007812 Z M 0.492188 0 " fill-opacity="1" fill-rule="nonzero"/></g><g fill="#0047ab" fill-opacity="1"><g transform="translate(5.025237, 26.67033)"><g><path d="M 14.1875 -13.359375 C 13.632812 -14.003906 12.984375 -14.457031 12.234375 -14.71875 C 11.492188 -14.976562 10.765625 -15.109375 10.046875 -15.109375 C 8.472656 -15.109375 7.207031 -14.5625 6.25 -13.46875 C 5.289062 -12.382812 4.8125 -10.921875 4.8125 -9.078125 C 4.8125 -7.304688 5.304688 -5.882812 6.296875 -4.8125 C 7.296875 -3.738281 8.597656 -3.203125 10.203125 -3.203125 C 10.921875 -3.203125 11.648438 -3.328125 12.390625 -3.578125 C 13.128906 -3.828125 13.785156 -4.238281 14.359375 -4.8125 C 14.890625 -5.332031 15.410156 -5.601562 15.921875 -5.625 C 16.441406 -5.65625 16.867188 -5.515625 17.203125 -5.203125 C 17.535156 -4.890625 17.71875 -4.488281 17.75 -4 C 17.789062 -3.507812 17.582031 -3.015625 17.125 -2.515625 C 16.195312 -1.484375 15.125 -0.742188 13.90625 -0.296875 C 12.695312 0.140625 11.445312 0.359375 10.15625 0.359375 C 8.269531 0.359375 6.613281 -0.0351562 5.1875 -0.828125 C 3.757812 -1.617188 2.648438 -2.71875 1.859375 -4.125 C 1.078125 -5.539062 0.6875 -7.179688 0.6875 -9.046875 C 0.6875 -10.984375 1.070312 -12.671875 1.84375 -14.109375 C 2.625 -15.546875 3.71875 -16.660156 5.125 -17.453125 C 6.539062 -18.242188 8.179688 -18.640625 10.046875 -18.640625 C 11.367188 -18.640625 12.597656 -18.4375 13.734375 -18.03125 C 14.867188 -17.625 15.914062 -16.859375 16.875 -15.734375 C 17.300781 -15.222656 17.484375 -14.726562 17.421875 -14.25 C 17.367188 -13.769531 17.160156 -13.375 16.796875 -13.0625 C 16.441406 -12.757812 16.019531 -12.613281 15.53125 -12.625 C 15.039062 -12.632812 14.59375 -12.878906 14.1875 -13.359375 Z M 14.1875 -13.359375 "/></g></g></g><g fill="#0047ab" fill-opacity="1"><g transform="translate(22.978949, 26.67033)"><g><path d="M 16.703125 -18.28125 C 17.316406 -18.28125 17.8125 -18.101562 18.1875 -17.75 C 18.5625 -17.40625 18.75 -16.957031 18.75 -16.40625 L 18.75 -1.859375 C 18.75 -1.316406 18.5625 -0.867188 18.1875 -0.515625 C 17.8125 -0.171875 17.316406 0 16.703125 0 C 16.097656 0 15.628906 -0.132812 15.296875 -0.40625 C 14.960938 -0.6875 14.757812 -1.054688 14.6875 -1.515625 C 13.875 -0.859375 12.960938 -0.378906 11.953125 -0.078125 C 10.953125 0.210938 9.992188 0.359375 9.078125 0.359375 C 7.359375 0.359375 5.867188 -0.0351562 4.609375 -0.828125 C 3.359375 -1.617188 2.394531 -2.726562 1.71875 -4.15625 C 1.050781 -5.59375 0.71875 -7.269531 0.71875 -9.1875 C 0.71875 -11.0625 1.085938 -12.703125 1.828125 -14.109375 C 2.566406 -15.523438 3.601562 -16.632812 4.9375 -17.4375 C 6.269531 -18.238281 7.804688 -18.640625 9.546875 -18.640625 C 10.316406 -18.640625 11.164062 -18.492188 12.09375 -18.203125 C 13.03125 -17.921875 13.894531 -17.46875 14.6875 -16.84375 C 14.78125 -17.269531 14.992188 -17.613281 15.328125 -17.875 C 15.660156 -18.144531 16.117188 -18.28125 16.703125 -18.28125 Z M 9.515625 -3.265625 C 10.566406 -3.265625 11.582031 -3.5 12.5625 -3.96875 C 13.550781 -4.4375 14.25 -5.125 14.65625 -6.03125 L 14.65625 -12.25 C 14.195312 -13.132812 13.507812 -13.816406 12.59375 -14.296875 C 11.6875 -14.773438 10.769531 -15.015625 9.84375 -15.015625 C 8.332031 -15.015625 7.113281 -14.460938 6.1875 -13.359375 C 5.269531 -12.253906 4.8125 -10.851562 4.8125 -9.15625 C 4.8125 -7.382812 5.238281 -5.957031 6.09375 -4.875 C 6.957031 -3.800781 8.097656 -3.265625 9.515625 -3.265625 Z M 9.515625 -3.265625 "/></g></g></g><g fill="#0047ab" fill-opacity="1"><g transform="translate(43.733487, 26.67033)"><g><path d="M 16.734375 -18.28125 C 17.359375 -18.28125 17.890625 -18.007812 18.328125 -17.46875 C 18.773438 -16.925781 18.863281 -16.296875 18.59375 -15.578125 L 8.109375 4.984375 C 7.867188 5.441406 7.5625 5.800781 7.1875 6.0625 C 6.820312 6.332031 6.4375 6.46875 6.03125 6.46875 C 5.625 6.46875 5.242188 6.328125 4.890625 6.046875 C 4.546875 5.773438 4.304688 5.421875 4.171875 4.984375 C 4.046875 4.554688 4.101562 4.101562 4.34375 3.625 L 7.078125 -1.765625 L 0 -15.4375 C -0.21875 -15.914062 -0.25 -16.367188 -0.09375 -16.796875 C 0.0625 -17.234375 0.316406 -17.585938 0.671875 -17.859375 C 1.035156 -18.140625 1.429688 -18.28125 1.859375 -18.28125 C 2.242188 -18.28125 2.613281 -18.160156 2.96875 -17.921875 C 3.332031 -17.679688 3.597656 -17.367188 3.765625 -16.984375 L 9.296875 -6.171875 L 14.828125 -17.015625 C 14.992188 -17.398438 15.242188 -17.707031 15.578125 -17.9375 C 15.921875 -18.164062 16.304688 -18.28125 16.734375 -18.28125 Z M 16.734375 -18.28125 "/></g></g></g><g fill="#0047ab" fill-opacity="1"><g transform="translate(62.443254, 26.67033)"><g/></g></g><g fill="#0047ab" fill-opacity="1"><g transform="translate(70.881382, 26.67033)"><g/></g></g><g fill="#0047ab" fill-opacity="1"><g transform="translate(79.319509, 26.67033)"><g/></g></g><g fill="#0047ab" fill-opacity="1"><g transform="translate(87.758066, 26.67033)"><g><path d="M 0.46875 -4.265625 C 0.300781 -4.941406 0.457031 -5.484375 0.9375 -5.890625 C 1.414062 -6.296875 1.941406 -6.5 2.515625 -6.5 C 2.941406 -6.5 3.320312 -6.375 3.65625 -6.125 C 4 -5.875 4.253906 -5.492188 4.421875 -4.984375 C 4.554688 -4.554688 4.863281 -4.203125 5.34375 -3.921875 C 5.820312 -3.648438 6.378906 -3.453125 7.015625 -3.328125 C 7.648438 -3.210938 8.289062 -3.15625 8.9375 -3.15625 C 10.226562 -3.15625 11.269531 -3.390625 12.0625 -3.859375 C 12.851562 -4.328125 13.25 -4.921875 13.25 -5.640625 C 13.25 -6.140625 13.039062 -6.507812 12.625 -6.75 C 12.207031 -6.988281 11.65625 -7.15625 10.96875 -7.25 C 10.289062 -7.34375 9.566406 -7.414062 8.796875 -7.46875 C 7.785156 -7.5625 6.796875 -7.679688 5.828125 -7.828125 C 4.859375 -7.972656 3.976562 -8.21875 3.1875 -8.5625 C 2.40625 -8.90625 1.773438 -9.414062 1.296875 -10.09375 C 0.816406 -10.78125 0.578125 -11.710938 0.578125 -12.890625 C 0.578125 -14.035156 0.910156 -15.039062 1.578125 -15.90625 C 2.242188 -16.769531 3.1875 -17.441406 4.40625 -17.921875 C 5.632812 -18.398438 7.050781 -18.640625 8.65625 -18.640625 C 9.582031 -18.640625 10.582031 -18.546875 11.65625 -18.359375 C 12.738281 -18.179688 13.738281 -17.816406 14.65625 -17.265625 C 15.582031 -16.710938 16.265625 -15.863281 16.703125 -14.71875 C 16.867188 -14.238281 16.851562 -13.8125 16.65625 -13.4375 C 16.46875 -13.070312 16.1875 -12.789062 15.8125 -12.59375 C 15.445312 -12.40625 15.070312 -12.3125 14.6875 -12.3125 C 14.257812 -12.3125 13.90625 -12.394531 13.625 -12.5625 C 13.351562 -12.726562 13.117188 -13.015625 12.921875 -13.421875 C 12.710938 -13.929688 12.347656 -14.304688 11.828125 -14.546875 C 11.316406 -14.785156 10.765625 -14.929688 10.171875 -14.984375 C 9.585938 -15.046875 9.082031 -15.078125 8.65625 -15.078125 C 7.457031 -15.078125 6.492188 -14.875 5.765625 -14.46875 C 5.035156 -14.0625 4.671875 -13.523438 4.671875 -12.859375 C 4.671875 -12.285156 4.859375 -11.894531 5.234375 -11.6875 C 5.617188 -11.476562 6.140625 -11.359375 6.796875 -11.328125 C 7.460938 -11.296875 8.203125 -11.226562 9.015625 -11.125 C 10.015625 -11.007812 11.003906 -10.878906 11.984375 -10.734375 C 12.972656 -10.585938 13.875 -10.34375 14.6875 -10 C 15.5 -9.65625 16.144531 -9.140625 16.625 -8.453125 C 17.101562 -7.773438 17.34375 -6.835938 17.34375 -5.640625 C 17.34375 -4.460938 16.988281 -3.421875 16.28125 -2.515625 C 15.570312 -1.609375 14.585938 -0.898438 13.328125 -0.390625 C 12.078125 0.109375 10.613281 0.359375 8.9375 0.359375 C 8.195312 0.359375 7.390625 0.300781 6.515625 0.1875 C 5.640625 0.0820312 4.789062 -0.128906 3.96875 -0.453125 C 3.144531 -0.773438 2.421875 -1.238281 1.796875 -1.84375 C 1.171875 -2.457031 0.726562 -3.265625 0.46875 -4.265625 Z M 0.46875 -4.265625 "/></g></g></g><g clip-path="url(#2ef1cd73b5)"><path stroke-linecap="butt" transform="matrix(-0.0246886, 0, 0, 0.0246886, 84.373699, 3.912713)" fill-opacity="1" fill="#0047ab" fill-rule="evenodd" stroke-linejoin="miter" d="M 347.084347 896.377024 C 296.770047 861.884831 255.157905 892.263276 216.868406 926.597249 C 266.23338 940.04604 318.446333 946.05844 347.084347 896.377024 Z M 347.084347 896.377024 " stroke="#007d00" stroke-width="1" stroke-opacity="1" stroke-miterlimit="4"/></g><path stroke-linecap="butt" transform="matrix(-0.0246886, 0, 0, 0.0246886, 84.373699, 3.912713)" fill-opacity="1" fill="#0047ab" fill-rule="evenodd" stroke-linejoin="miter" d="M 335.059546 866.631463 C 332.844451 805.716351 283.479477 790.368907 233.165177 780.242759 C 251.835263 827.70908 278.09996 873.276748 335.059546 866.631463 Z M 335.059546 866.631463 " stroke="#007d00" stroke-width="1" stroke-opacity="1" stroke-miterlimit="4"/><path stroke-linecap="butt" transform="matrix(-0.0246886, 0, 0, 0.0246886, 84.373699, 3.912713)" fill-opacity="1" fill="#0047ab" fill-rule="evenodd" stroke-linejoin="miter" d="M 257.531221 869.004779 C 210.223121 830.240617 166.079443 856.979978 125.100186 887.991308 C 173.199391 905.553846 224.77946 915.996437 257.531221 869.004779 Z M 257.531221 869.004779 " stroke="#007d00" stroke-width="1" stroke-opacity="1" stroke-miterlimit="4"/><path stroke-linecap="butt" transform="matrix(-0.0246886, 0, 0, 0.0246886, 84.373699, 3.912713)" fill-opacity="1" fill="#0047ab" fill-rule="evenodd" stroke-linejoin="miter" d="M 213.703985 840.050323 C 243.133104 786.571602 208.640911 748.123882 170.667854 713.473468 C 162.282137 763.945989 161.491032 816.475384 213.703985 840.050323 Z M 213.703985 840.050323 " stroke="#007d00" stroke-width="1" stroke-opacity="1" stroke-miterlimit="4"/><path stroke-linecap="butt" transform="matrix(-0.0246886, 0, 0, 0.0246886, 84.373699, 3.912713)" fill-opacity="1" fill="#0047ab" fill-rule="evenodd" stroke-linejoin="miter" d="M 175.572707 838.784555 C 140.922293 788.628476 91.082656 802.235488 43.141672 820.747353 C 84.437371 850.809356 131.112587 875.01718 175.572707 838.784555 Z M 175.572707 838.784555 " stroke="#007d00" stroke-width="1" stroke-opacity="1" stroke-miterlimit="4"/><path stroke-linecap="butt" transform="matrix(-0.0246886, 0, 0, 0.0246886, 84.373699, 3.912713)" fill-opacity="1" fill="#0047ab" fill-rule="evenodd" stroke-linejoin="miter" d="M 126.524176 794.007992 C 171.458959 752.712293 151.048441 705.245972 126.049512 660.469409 C 101.99991 705.562414 84.437371 755.085609 126.524176 794.007992 Z M 126.524176 794.007992 " stroke="#007d00" stroke-width="1" stroke-opacity="1" stroke-miterlimit="4"/><path stroke-linecap="butt" transform="matrix(-0.0246886, 0, 0, 0.0246886, 84.373699, 3.912713)" fill-opacity="1" fill="#0047ab" fill-rule="evenodd" stroke-linejoin="miter" d="M 102.632794 789.103139 C 78.266749 733.09288 26.686681 737.048407 -23.785841 746.067008 C 11.022795 783.40718 52.318494 816.158942 102.632794 789.103139 Z M 102.632794 789.103139 " stroke="#007d00" stroke-width="1" stroke-opacity="1" stroke-miterlimit="4"/><path stroke-linecap="butt" transform="matrix(-0.0246886, 0, 0, 0.0246886, 84.373699, 3.912713)" fill-opacity="1" fill="#0047ab" fill-rule="evenodd" stroke-linejoin="miter" d="M 61.811758 734.991533 C 113.550048 702.714435 102.316352 652.241914 86.019582 603.509824 C 54.058926 643.539755 27.636007 688.949202 61.811758 734.991533 Z M 61.811758 734.991533 " stroke="#007d00" stroke-width="1" stroke-opacity="1" stroke-miterlimit="4"/><g clip-path="url(#6e8bde3641)"><path fill="#0047ab" d="M 83.292969 21.871094 C 83.628906 20.402344 84.894531 20.257812 86.160156 20.242188 C 85.492188 21.308594 84.644531 22.292969 83.292969 21.871094 Z M 83.292969 21.871094 " fill-opacity="1" fill-rule="evenodd"/></g><g clip-path="url(#aa3f179090)"><path stroke-linecap="butt" transform="matrix(-0.0246886, 0, 0, 0.0246886, 84.373699, 3.912713)" fill="none" stroke-linejoin="miter" d="M 43.774556 727.396922 C 30.167544 667.905799 -21.096083 662.05162 -72.359709 661.418736 C -45.303906 704.613088 -10.969934 744.484797 43.774556 727.396922 Z M 43.774556 727.396922 " stroke="#007d00" stroke-width="1" stroke-opacity="1" stroke-miterlimit="4"/></g><path stroke-linecap="butt" transform="matrix(-0.0246886, 0, 0, 0.0246886, 84.373699, 3.912713)" fill-opacity="1" fill="#0047ab" fill-rule="evenodd" stroke-linejoin="miter" d="M 28.427112 640.058891 C 83.488045 613.794194 78.108528 562.530567 67.507717 512.216267 C 31.11687 548.13245 -0.210901 590.377475 28.427112 640.058891 Z M 28.427112 640.058891 " stroke="#007d00" stroke-width="1" stroke-opacity="1" stroke-miterlimit="4"/><g clip-path="url(#45756e87b9)"><path stroke-linecap="butt" transform="matrix(-0.0246886, 0, 0, 0.0246886, 84.373699, 3.912713)" fill-opacity="1" fill="#0047ab" fill-rule="evenodd" stroke-linejoin="miter" d="M 19.092069 656.988546 C 12.763226 596.231655 -37.392853 584.365075 -88.340037 577.561569 C -66.50553 623.762121 -37.234632 667.431136 19.092069 656.988546 Z M 19.092069 656.988546 " stroke="#007d00" stroke-width="1" stroke-opacity="1" stroke-miterlimit="4"/></g><path stroke-linecap="butt" transform="matrix(-0.0246886, 0, 0, 0.0246886, 84.373699, 3.912713)" fill-opacity="1" fill="#0047ab" fill-rule="evenodd" stroke-linejoin="miter" d="M 5.168615 540.537838 C 64.817958 527.247268 70.98858 476.141863 71.937906 424.720015 C 28.427112 451.617597 -11.602818 485.635127 5.168615 540.537838 Z M 5.168615 540.537838 " stroke="#007d00" stroke-width="1" stroke-opacity="1" stroke-miterlimit="4"/><g clip-path="url(#ea8f5602ea)"><path stroke-linecap="butt" transform="matrix(-0.0246886, 0, 0, 0.0246886, 84.373699, 3.912713)" fill-opacity="1" fill="#0047ab" fill-rule="evenodd" stroke-linejoin="miter" d="M -6.539744 585.314401 C 10.706352 526.772605 -31.06401 496.552381 -75.682352 470.920568 C -72.992593 522.025973 -62.550003 573.447821 -6.539744 585.314401 Z M -6.539744 585.314401 " stroke="#007d00" stroke-width="1" stroke-opacity="1" stroke-miterlimit="4"/></g><path stroke-linecap="butt" transform="matrix(-0.0246886, 0, 0, 0.0246886, 84.373699, 3.912713)" fill-opacity="1" fill="#0047ab" fill-rule="evenodd" stroke-linejoin="miter" d="M 28.585333 425.511121 C 89.500445 428.517321 109.119858 380.734558 123.517975 331.527805 C 74.627665 345.925922 26.844902 368.235093 28.585333 425.511121 Z M 28.585333 425.511121 " stroke="#007d00" stroke-width="1" stroke-opacity="1" stroke-miterlimit="4"/><path stroke-linecap="butt" transform="matrix(-0.0246886, 0, 0, 0.0246886, 84.373699, 3.912713)" fill-opacity="1" fill="#0047ab" fill-rule="evenodd" stroke-linejoin="miter" d="M -10.653492 491.172864 C 26.053796 442.440775 -2.742438 399.404644 -35.4942 359.849377 C -50.841644 408.581466 -59.069139 460.636198 -10.653492 491.172864 Z M -10.653492 491.172864 " stroke="#007d00" stroke-width="1" stroke-opacity="1" stroke-miterlimit="4"/><g clip-path="url(#222871845b)"><path stroke-linecap="butt" transform="matrix(-0.0246886, 0, 0, 0.0246886, 84.373699, 3.912713)" fill-opacity="1" fill="#0047ab" fill-rule="evenodd" stroke-linejoin="miter" d="M 55.324694 338.647753 C 116.239806 335.16689 130.479702 285.485474 139.656524 235.012952 C 92.348424 254.632365 47.413641 281.846389 55.324694 338.647753 Z M 55.324694 338.647753 " stroke="#007d00" stroke-width="1" stroke-opacity="1" stroke-miterlimit="4"/></g><path stroke-linecap="butt" transform="matrix(-0.0246886, 0, 0, 0.0246886, 84.373699, 3.912713)" fill-opacity="1" fill="#0047ab" fill-rule="evenodd" stroke-linejoin="miter" d="M 16.402311 391.335369 C 62.1282 350.988997 42.82523 303.048012 18.775627 257.638565 C -6.223302 302.256907 -24.735167 351.46366 16.402311 391.335369 Z M 16.402311 391.335369 " stroke="#007d00" stroke-width="1" stroke-opacity="1" stroke-miterlimit="4"/><g clip-path="url(#ad12740f32)"><path fill="#0047ab" d="M 74.292969 26.066406 C 73.050781 25.210938 72.019531 25.960938 71.078125 26.8125 C 72.296875 27.140625 73.585938 27.292969 74.292969 26.066406 Z M 74.292969 26.066406 " fill-opacity="1" fill-rule="evenodd"/></g><g clip-path="url(#e6008ce443)"><path stroke-linecap="butt" transform="matrix(0.0246886, 0, 0, 0.0246886, 65.722979, 3.934488)" fill="none" stroke-linejoin="miter" d="M 347.12396 896.444353 C 296.80966 861.793939 255.039297 892.172385 216.908019 926.664578 C 266.272993 939.955148 318.485946 946.125769 347.12396 896.444353 Z M 347.12396 896.444353 " stroke="#007d00" stroke-width="1" stroke-opacity="1" stroke-miterlimit="4"/></g><path stroke-linecap="butt" transform="matrix(0.0246886, 0, 0, 0.0246886, 65.722979, 3.934488)" fill-opacity="1" fill="#0047ab" fill-rule="evenodd" stroke-linejoin="miter" d="M 334.940938 866.698792 C 332.725843 805.625459 283.51909 790.278016 233.046569 780.151867 C 251.874876 827.776409 278.139573 873.344077 334.940938 866.698792 Z M 334.940938 866.698792 " stroke="#007d00" stroke-width="1" stroke-opacity="1" stroke-miterlimit="4"/><path stroke-linecap="butt" transform="matrix(0.0246886, 0, 0, 0.0246886, 65.722979, 3.934488)" fill-opacity="1" fill="#0047ab" fill-rule="evenodd" stroke-linejoin="miter" d="M 257.412613 868.913887 C 210.262735 830.307946 166.119056 857.047307 125.139799 888.058637 C 173.239004 905.462954 224.660852 916.063766 257.412613 868.913887 Z M 257.412613 868.913887 " stroke="#007d00" stroke-width="1" stroke-opacity="1" stroke-miterlimit="4"/><path stroke-linecap="butt" transform="matrix(0.0246886, 0, 0, 0.0246886, 65.722979, 3.934488)" fill-opacity="1" fill="#0047ab" fill-rule="evenodd" stroke-linejoin="miter" d="M 213.743598 840.117653 C 243.172717 786.638931 208.680524 748.03299 170.707467 713.540797 C 162.32175 764.013318 161.530645 816.542713 213.743598 840.117653 Z M 213.743598 840.117653 " stroke="#007d00" stroke-width="1" stroke-opacity="1" stroke-miterlimit="4"/><path stroke-linecap="butt" transform="matrix(0.0246886, 0, 0, 0.0246886, 65.722979, 3.934488)" fill-opacity="1" fill="#0047ab" fill-rule="evenodd" stroke-linejoin="miter" d="M 175.61232 838.851884 C 140.803685 788.695805 91.122269 802.302817 43.181285 820.814682 C 84.476984 850.876685 131.1522 875.084509 175.61232 838.851884 Z M 175.61232 838.851884 " stroke="#007d00" stroke-width="1" stroke-opacity="1" stroke-miterlimit="4"/><path stroke-linecap="butt" transform="matrix(0.0246886, 0, 0, 0.0246886, 65.722979, 3.934488)" fill-opacity="1" fill="#0047ab" fill-rule="evenodd" stroke-linejoin="miter" d="M 126.563789 794.075321 C 171.498572 752.779622 151.088054 705.313301 126.089125 660.378517 C 102.039523 705.629743 84.476984 755.152938 126.563789 794.075321 Z M 126.563789 794.075321 " stroke="#007d00" stroke-width="1" stroke-opacity="1" stroke-miterlimit="4"/><path stroke-linecap="butt" transform="matrix(0.0246886, 0, 0, 0.0246886, 65.722979, 3.934488)" fill-opacity="1" fill="#0047ab" fill-rule="evenodd" stroke-linejoin="miter" d="M 102.672407 789.012247 C 78.148141 733.160209 26.726294 736.957515 -23.904449 746.134337 C 11.062408 783.47451 52.199886 816.226271 102.672407 789.012247 Z M 102.672407 789.012247 " stroke="#007d00" stroke-width="1" stroke-opacity="1" stroke-miterlimit="4"/><path stroke-linecap="butt" transform="matrix(0.0246886, 0, 0, 0.0246886, 65.722979, 3.934488)" fill-opacity="1" fill="#0047ab" fill-rule="evenodd" stroke-linejoin="miter" d="M 61.851371 735.058862 C 113.589661 702.781764 102.355965 652.309243 86.059195 603.577153 C 54.098539 643.448863 27.67562 689.016531 61.851371 735.058862 Z M 61.851371 735.058862 " stroke="#007d00" stroke-width="1" stroke-opacity="1" stroke-miterlimit="4"/><g clip-path="url(#6d3cd0d43f)"><path fill="#0047ab" d="M 66.800781 21.894531 C 66.46875 20.425781 65.203125 20.277344 63.933594 20.261719 C 64.605469 21.332031 65.453125 22.316406 66.800781 21.894531 Z M 66.800781 21.894531 " fill-opacity="1" fill-rule="evenodd"/></g><g clip-path="url(#9435f5f69f)"><path stroke-linecap="butt" transform="matrix(0.0246886, 0, 0, 0.0246886, 65.722979, 3.934488)" fill="none" stroke-linejoin="miter" d="M 43.655948 727.464251 C 30.207157 667.973129 -21.05647 661.960728 -72.478317 661.327844 C -45.264293 704.680417 -10.930321 744.552126 43.655948 727.464251 Z M 43.655948 727.464251 " stroke="#007d00" stroke-width="1" stroke-opacity="1" stroke-miterlimit="4"/></g><path stroke-linecap="butt" transform="matrix(0.0246886, 0, 0, 0.0246886, 65.722979, 3.934488)" fill-opacity="1" fill="#0047ab" fill-rule="evenodd" stroke-linejoin="miter" d="M 28.308504 639.967999 C 83.527658 613.861523 78.148141 562.439675 67.54733 512.125375 C 31.156484 548.199779 -0.171288 590.286583 28.308504 639.967999 Z M 28.308504 639.967999 " stroke="#007d00" stroke-width="1" stroke-opacity="1" stroke-miterlimit="4"/><g clip-path="url(#31daade1f9)"><path stroke-linecap="butt" transform="matrix(0.0246886, 0, 0, 0.0246886, 65.722979, 3.934488)" fill-opacity="1" fill="#0047ab" fill-rule="evenodd" stroke-linejoin="miter" d="M 19.131682 657.055875 C 12.802839 596.298984 -37.35324 584.274183 -88.300424 577.628898 C -66.465917 623.82945 -37.195019 667.498465 19.131682 657.055875 Z M 19.131682 657.055875 " stroke="#007d00" stroke-width="1" stroke-opacity="1" stroke-miterlimit="4"/></g><path stroke-linecap="butt" transform="matrix(0.0246886, 0, 0, 0.0246886, 65.722979, 3.934488)" fill-opacity="1" fill="#0047ab" fill-rule="evenodd" stroke-linejoin="miter" d="M 5.208228 540.446946 C 64.69935 527.314598 71.028193 476.050971 71.819298 424.629123 C 28.466725 451.684926 -11.563205 485.702456 5.208228 540.446946 Z M 5.208228 540.446946 " stroke="#007d00" stroke-width="1" stroke-opacity="1" stroke-miterlimit="4"/><g clip-path="url(#2004dc5c5c)"><path stroke-linecap="butt" transform="matrix(0.0246886, 0, 0, 0.0246886, 65.722979, 3.934488)" fill-opacity="1" fill="#0047ab" fill-rule="evenodd" stroke-linejoin="miter" d="M -6.500131 585.223509 C 10.745966 526.681713 -31.182618 496.461489 -75.642739 470.829676 C -73.111201 521.935081 -62.51039 573.51515 -6.500131 585.223509 Z M -6.500131 585.223509 " stroke="#007d00" stroke-width="1" stroke-opacity="1" stroke-miterlimit="4"/></g><path stroke-linecap="butt" transform="matrix(0.0246886, 0, 0, 0.0246886, 65.722979, 3.934488)" fill-opacity="1" fill="#0047ab" fill-rule="evenodd" stroke-linejoin="miter" d="M 28.624946 425.57845 C 89.540058 428.58465 109.159471 380.801887 123.557588 331.436913 C 74.509057 345.993252 26.884515 368.302422 28.624946 425.57845 Z M 28.624946 425.57845 " stroke="#007d00" stroke-width="1" stroke-opacity="1" stroke-miterlimit="4"/><path stroke-linecap="butt" transform="matrix(0.0246886, 0, 0, 0.0246886, 65.722979, 3.934488)" fill-opacity="1" fill="#0047ab" fill-rule="evenodd" stroke-linejoin="miter" d="M -10.613879 491.240194 C 25.935188 442.349883 -2.702825 399.471973 -35.454587 359.916706 C -50.802031 408.648795 -59.029526 460.545306 -10.613879 491.240194 Z M -10.613879 491.240194 " stroke="#007d00" stroke-width="1" stroke-opacity="1" stroke-miterlimit="4"/><g clip-path="url(#6bd80a14b4)"><path fill="#0047ab" d="M 67.085938 12.296875 C 68.59375 12.207031 68.945312 10.984375 69.167969 9.734375 C 68.003906 10.222656 66.894531 10.894531 67.085938 12.296875 Z M 67.085938 12.296875 " fill-opacity="1" fill-rule="evenodd"/></g><g clip-path="url(#e3e26a60b4)"><path stroke-linecap="butt" transform="matrix(0.0246886, 0, 0, 0.0246886, 65.722979, 3.934488)" fill="none" stroke-linejoin="miter" d="M 55.206086 338.715082 C 116.279419 335.075998 130.519315 285.552803 139.537916 234.922061 C 92.388038 254.699694 47.453254 281.913718 55.206086 338.715082 Z M 55.206086 338.715082 " stroke="#007d00" stroke-width="1" stroke-opacity="1" stroke-miterlimit="4"/></g><path stroke-linecap="butt" transform="matrix(0.0246886, 0, 0, 0.0246886, 65.722979, 3.934488)" fill-opacity="1" fill="#0047ab" fill-rule="evenodd" stroke-linejoin="miter" d="M 16.441924 391.402699 C 62.167813 350.898105 42.864843 303.115342 18.81524 257.705895 C -6.183689 302.324236 -24.853775 351.530989 16.441924 391.402699 Z M 16.441924 391.402699 " stroke="#007d00" stroke-width="1" stroke-opacity="1" stroke-miterlimit="4"/><path stroke-linecap="round" transform="matrix(0.0332357, 0, 0, 0.0254144, 63.326954, 2.740253)" fill-opacity="1" fill="#0047ab" fill-rule="nonzero" stroke-linejoin="miter" d="M 365.676096 905.843366 C 365.676096 910.608135 364.383248 914.604393 361.797552 917.985842 C 359.211857 921.367291 356.156035 923.058016 352.512555 923.058016 C 348.869074 923.058016 345.813252 921.367291 343.227557 917.985842 C 340.641861 914.604393 339.466545 910.608135 339.466545 905.843366 C 339.466545 901.078597 340.641861 897.082339 343.227557 893.70089 C 345.813252 890.319441 348.869074 888.782419 352.512555 888.782419 C 356.156035 888.782419 359.211857 890.319441 361.797552 893.70089 C 364.383248 897.082339 365.676096 901.078597 365.676096 905.843366 Z M 365.676096 905.843366 " stroke="#007d00" stroke-width="0.849" stroke-opacity="1" stroke-miterlimit="4"/></svg>