<svg version="1.2" xmlns="http://www.w3.org/2000/svg" viewBox="0 0 600 250" width="600" height="250">
	<defs>
		<linearGradient id="g1" x2="1" gradientUnits="userSpaceOnUse" gradientTransform="matrix(120,-120.571,94.261,93.815,55.631,192.539)">
			<stop offset="0" stop-color="#540d6e"/>
			<stop offset="1" stop-color="#080357"/>
		</linearGradient>
	</defs>
	<style>
		.s0 { fill: #808080 } 
		.s1 { fill: url(#g1) } 
	</style>
	<g>
		<g>
			<path class="s0" d="m306 172.9c27.5 0 46.3-11.7 59.2-29.3l-29.9-24.5c-7 9-15.1 14-25.1 14-11.4 0-20.3-8.2-20.3-23 0-18.4 12.5-36.8 31.9-36.8 9.8 0 17.4 5.3 20.1 16.3l38.6-17.4c-5.4-23.8-25.1-39.1-53-39.1-55.7 0-82.9 44.4-82.9 81.1 0.1 35.9 25.2 58.7 61.4 58.7z"/>
			<path class="s0" d="m361.5 172.9h48.5l-14.5-39.8z"/>
			<path class="s0" d="m397.1 33l12.5 36.2 29-36.2z"/>
			<path class="s0" d="m502.3 33c-2.9 0-5.8 0.2-8.7 0.5l-26.3 28.1-38.1 40.7 26.9 63 2.5 5.9h11.2l-0.5-0.9c6.7 1.8 13.6 2.6 20.6 2.6 45.2 0 79.2-37.3 79.2-78.9 0-34.5-27.2-61-66.8-61zm-9.3 100.3c-16.1 0-24.8-11.1-24.8-25.4 0-16.9 12.1-35.4 30.9-35.4 16.1 0 24.8 11.2 24.8 25.4 0.1 17-12 35.4-30.9 35.4z"/>
		</g>
		<g>
			<path class="s0" d="m207 213.4v-5.1c0-4 1-5.4 8.7-6.5 5-0.7 5.8-1.7 5.8-4.3v-0.1c0-2.7-1-3.7-5.3-3.7-4.1 0-5.3 1-5.3 3.6v0.9l-3.8-0.1v-0.6c-0.1-5.2 1.9-7.2 9.1-7.2 7.1 0 9.2 1.8 9.2 7v0.1c0 4.9-1.6 6.6-8.9 7.6-5.1 0.7-5.7 1.3-5.7 3.5v1.5h8.5c2.5 0 4.8 0 6.1 0v3.3h-18.4z"/>
			<path class="s0" d="m238.5 209.1v4.3h-4.5v-4.3z"/>
			<path class="s0" d="m246.3 202.7v-1c0-8.6 2.7-11.2 10.3-11.2 7.7 0 10.3 2.6 10.3 11.2v1c0 8.6-2.7 11.2-10.3 11.2-7.6 0-10.3-2.6-10.3-11.2zm16.7-0.4v-0.3c0-6.3-1.5-8.1-6.4-8.1-4.9 0-6.4 1.8-6.4 8.1v0.3c0 6.5 1.5 8.1 6.4 8.1 5 0 6.4-1.6 6.4-8.1z"/>
			<path class="s0" d="m288.6 202.7v-1c0-8.6 2.7-11.2 10.6-11.2 7.9 0 10.5 2.2 10.5 9l-3.8 0.1c0-4.3-1.2-5.5-6.6-5.5-5.3 0-6.7 1.7-6.7 8v0.3c0 6.5 1.4 8 6.7 8 5.4 0 6.6-1.3 6.6-5.5l3.8 0.1c0 6.8-2.6 9-10.5 9-7.9-0.1-10.6-2.7-10.6-11.3z"/>
			<path class="s0" d="m317.6 202.7v-1c0-8.6 2.7-11.2 10.9-11.2 8.2 0 10.9 2.6 10.9 11.2v1c0 8.6-2.8 11.2-10.9 11.2-8.1 0-10.9-2.6-10.9-11.2zm17.8-0.4v-0.3c0-6.5-1.4-8-6.9-8-5.5 0-6.9 1.7-6.9 8v0.3c0 6.5 1.4 8 6.9 8 5.5 0 6.9-1.5 6.9-8z"/>
			<path class="s0" d="m348.6 209.2v-14.2c0-1.7 0-2.7 0-4.2h6.4l5.2 9.8c1.7 3.4 3.4 6.9 4.5 9.2h0.4c0-3.2-0.1-8-0.1-10.2 0-2.4 0-6.3 0-8.8h3.8c0 1.2 0 2.4 0 4.1v14.2c0 1.8 0 2.8 0 4.3h-6.1l-5.1-9.5c-1.8-3.5-3.6-6.8-5-9.5h-0.3c0 2.9 0.1 7.2 0.1 10.4 0 2.2 0 6 0 8.6h-3.8c0-1.5 0-2.4 0-4.2z"/>
			<path class="s0" d="m379.1 195c0-1.7 0-2.9 0-4.1h16.4v3.4c-2.2 0-5 0-8.3 0h-4.2v6.4h11.1v3.4c-2.1 0-7.4 0-9.4 0h-1.7v5.2c0 1.7 0 3 0 4.2h-3.9c0-1.2 0-2.5 0-4.2z"/>
			<path class="s0" d="m404.3 195c0-1.7 0-2.9 0-4.1h16.8v3.4c-2.2 0-7.1 0-10.1 0h-2.8v6h11.6v3.3c-1.8 0-6 0-8.6 0h-3v6.5h2.9c3.3 0 8.1 0 10.7 0v3.4h-17.4c0-1.2 0-2.5 0-4.2v-14.3z"/>
			<path class="s0" d="m430.8 195c0-1.7 0-2.9 0-4.1h11.9c5.6 0 7.8 1.7 7.8 7v0.1c0 3.7-1.2 5.9-4.7 6.6q1.05 1.65 2.1 3.6c1 1.7 2.1 3.5 3.2 5.2h-4.6c-0.7-1.2-1.5-2.6-2.3-3.9l-2.5-4.2h-7v3.9c0 1.7 0 3 0 4.2h-3.9c0-1.2 0-2.5 0-4.2zm3.8-0.8v7.7h7.6c3 0 4.1-1.1 4.1-3.9v-0.1c0-2.8-1.1-3.7-4.1-3.7z"/>
			<path class="s0" d="m459.5 195c0-1.7 0-2.9 0-4.1h16.8v3.4c-2.2 0-7.1 0-10.1 0h-2.8v6h11.6v3.3c-1.8 0-6 0-8.6 0h-3v6.5h2.9c3.3 0 8.1 0 10.7 0v3.4h-17.4c0-1.2 0-2.5 0-4.2v-14.3z"/>
			<path class="s0" d="m486 209.2v-14.2c0-1.7 0-2.7 0-4.2h6.4l5.2 9.8c1.7 3.4 3.4 6.9 4.5 9.2h0.4c0-3.2-0.1-8-0.1-10.2 0-2.4 0-6.3 0-8.8h3.8c0 1.2 0 2.4 0 4.1v14.2c0 1.8 0 2.8 0 4.3h-6.2l-5.1-9.5c-1.8-3.5-3.6-6.8-5-9.5h-0.3c0 2.9 0.1 7.2 0.1 10.4 0 2.2 0 6 0 8.6h-3.8c0.1-1.5 0.1-2.4 0.1-4.2z"/>
			<path class="s0" d="m515.3 202.7v-1c0-8.6 2.7-11.2 10.6-11.2 7.9 0 10.5 2.2 10.5 9l-3.8 0.1c0-4.3-1.2-5.5-6.6-5.5-5.3 0-6.7 1.7-6.7 8v0.3c0 6.5 1.4 8 6.7 8 5.4 0 6.6-1.3 6.6-5.5l3.8 0.1c0 6.8-2.6 9-10.5 9-7.9-0.1-10.6-2.7-10.6-11.3z"/>
			<path class="s0" d="m545.5 195c0-1.7 0-2.9 0-4.1h16.8v3.4c-2.2 0-7.1 0-10.1 0h-2.8v6h11.6v3.3c-1.8 0-6 0-8.6 0h-3v6.5h2.9c3.3 0 8.1 0 10.7 0v3.4h-17.4c0-1.2 0-2.5 0-4.2v-14.3z"/>
		</g>
		<g>
			<path class="s0" d="m30.9 66h151v151h-151z"/>
			<path class="s0" d="m63.8 33h151v151h-151z"/>
			<path class="s1" d="m63.8 66h118.1v118h-44.9v-43.7l-76.6 76.7h-29.5v-34.7l73.5-73.5h-40.6z"/>
		</g>
	</g>
</svg>